<svg xmlns="http://www.w3.org/2000/svg" viewBox="0 0 977 958" width="977" height="958">
	<style>
		tspan { white-space:pre }
		.shp0 { fill: #ffffff } 
		.shp1 { fill: #c5050a } 
	</style>
	<path id="Shape 1" class="shp0" d="M198 356L737 356L737 714L198 714L198 356Z" />
	<path id="Shape 3" class="shp0" d="M692 461L865 461L865 682L692 682L692 461Z" />
	<g id="g6">
		<path id="path8" fill-rule="evenodd" class="shp1" d="M713.89 0C715.29 0.1 977.79 681.2 976.89 682.2C976.09 683 260.99 957.8 260.69 957.4C260.59 957.2 201.39 803.7 129.29 616.1C6.89 297.8 -1.61 275 0.19 274.2C1.29 273.7 161.99 211.7 357.39 136.5C552.69 61.3 713.19 -0.1 713.89 0ZM391.09 431.6L350.09 431.6L350.09 499.4L342.59 495.1C327.09 486.3 312.19 483.1 290.59 483.9C279.49 484.3 274.79 484.9 267.59 487.1C251.39 491.9 238.19 500.3 225.19 514.2C208.99 531.6 201.69 550.7 201.79 575.6C201.79 604 210.89 625.8 230.19 644.1C242.49 655.7 254.49 662.6 269.99 666.8C276.29 668.6 280.59 668.9 294.59 669C315.29 669.1 323.19 667.3 339.39 659.3L350.09 653.9L350.09 668.6L391.09 668.6L391.09 431.6ZM447.09 431.6L406.09 431.6L406.09 668.6L447.09 668.6L447.09 431.6ZM707.09 431.6L666.09 431.6L666.09 668.6L707.09 668.6L707.09 654.8L716.89 659.7C732.09 667.3 739.29 668.9 759.59 669C774.09 669 777.79 668.7 785.09 666.8C801.89 662.4 817.09 653.4 829.19 640.9C846.49 623 854.39 602.9 854.39 576.6C854.39 561.8 852.39 551.1 847.49 539.4C839.39 520 820.19 500.4 800.59 491.5C786.69 485.2 780.39 484.1 760.09 484.2C742.89 484.2 740.99 484.4 732.59 487C727.69 488.5 719.89 491.7 715.39 494.2L707.09 498.6L707.09 431.6ZM651.09 480.6L610.09 480.6L610.09 498.4L600.69 493.7C595.59 491 587.59 487.8 582.99 486.5C575.49 484.4 572.69 484.1 556.09 484.2C538.89 484.2 536.99 484.4 528.59 487C512.19 492 499.09 500.4 486.19 514.2C469.99 531.6 462.69 550.7 462.79 575.6C462.79 604 471.89 625.8 491.19 644.1C503.49 655.7 515.49 662.6 530.99 666.8C537.29 668.6 541.59 668.9 555.59 669C575.89 669.1 583.99 667.4 599.09 659.9C604.29 657.3 608.89 655 609.39 654.8C609.79 654.6 610.09 657.6 610.09 661.5L610.09 668.6L651.09 668.6L651.09 480.6Z" />
		<path id="path10" class="shp1" d="M277.89 522.9C255.09 530.7 241.59 553.4 243.59 580.7C245.39 607.2 257.99 624.5 280.09 631C286.89 633.1 303.59 633.2 310.59 631.3C322.39 628 332.69 620.6 339.09 610.6C346.49 599.1 349.59 579.8 346.69 563.8C342.89 542.6 330.29 527.9 311.19 522.2C302.69 519.7 286.29 520.1 277.89 522.9Z" />
		<path id="path12" class="shp1" d="M742.89 522.9C720.09 530.7 706.59 553.4 708.59 580.7C710.39 607.2 722.99 624.5 745.09 631C751.89 633.1 768.59 633.2 775.59 631.3C787.39 628 797.69 620.6 804.09 610.6C811.49 599.1 814.59 579.8 811.69 563.8C807.89 542.6 795.29 527.9 776.19 522.2C767.69 519.7 751.29 520.1 742.89 522.9Z" />
		<path id="path14" class="shp1" d="M538.89 522.9C516.09 530.7 502.59 553.4 504.59 580.7C506.39 607.2 518.99 624.5 541.09 631C547.89 633.1 564.59 633.2 571.59 631.3C583.39 628 593.69 620.6 600.09 610.6C607.49 599.1 610.59 579.8 607.69 563.8C603.89 542.6 591.29 527.9 572.19 522.2C563.69 519.7 547.29 520.1 538.89 522.9Z" />
	</g>
</svg>